<svg xmlns="http://www.w3.org/2000/svg" width="32" height="32" viewBox="0 0 32 32">
  <defs>
    <style>
      .cls-1 {
        fill: #1cafe4;
        fill-rule: evenodd;
      }
    </style>
  </defs>
  <path id="fluid" class="cls-1" d="M0,32V0H32V32H0ZM30,2H2V30H30V2Zm-2,8H4V4H28v6Zm0,15H4V11H28V25Zm-5.172-8.414L20,13.757l-1.414,1.414L20.414,17H11.586l1.828-1.828L12,13.757,9.172,16.586,7.757,18l1.414,1.414L12,22.243l1.414-1.414L11.586,19h8.828l-1.828,1.828L20,22.243l2.828-2.828L24.243,18ZM28,28H4V26H28v2Z"/>
</svg>
